<?xml version="1.0" encoding="UTF-8" standalone="no"?>
<!-- Created with Inkscape (http://www.inkscape.org/) -->

<svg
   xmlns:dc="http://purl.org/dc/elements/1.1/"
   xmlns:cc="http://creativecommons.org/ns#"
   xmlns:rdf="http://www.w3.org/1999/02/22-rdf-syntax-ns#"
   xmlns:svg="http://www.w3.org/2000/svg"
   xmlns="http://www.w3.org/2000/svg"
   xmlns:sodipodi="http://sodipodi.sourceforge.net/DTD/sodipodi-0.dtd"
   xmlns:inkscape="http://www.inkscape.org/namespaces/inkscape"
   width="42.711311mm"
   height="42.711308mm"
   viewBox="0 0 42.711311 42.711308"
   version="1.1"
   id="svg100"
   inkscape:version="0.92.5 (2060ec1f9f, 2020-04-08)"
   sodipodi:docname="moli-bimi.svg">
  <defs
     id="defs94" />
  <sodipodi:namedview
     id="base"
     pagecolor="#ffffff"
     bordercolor="#666666"
     borderopacity="1.0"
     inkscape:pageopacity="0.0"
     inkscape:pageshadow="2"
     inkscape:zoom="1.979899"
     inkscape:cx="75.037574"
     inkscape:cy="95.505779"
     inkscape:document-units="mm"
     inkscape:current-layer="layer1"
     showgrid="false"
     fit-margin-top="0"
     fit-margin-left="0"
     fit-margin-right="0"
     fit-margin-bottom="0"
     inkscape:window-width="1366"
     inkscape:window-height="712"
     inkscape:window-x="0"
     inkscape:window-y="28"
     inkscape:window-maximized="1" />
  <metadata
     id="metadata97">
    <rdf:RDF>
      <cc:Work
         rdf:about="">
        <dc:format>image/svg+xml</dc:format>
        <dc:type
           rdf:resource="http://purl.org/dc/dcmitype/StillImage" />
        <dc:title></dc:title>
      </cc:Work>
    </rdf:RDF>
  </metadata>
  <g
     inkscape:label="Capa 1"
     inkscape:groupmode="layer"
     id="layer1"
     transform="translate(-94.103599,-143.56527)">
    <path
       style="opacity:1;fill:#000000;fill-opacity:0.99512197;stroke:#000003;stroke-width:0.13507845;stroke-linejoin:round;stroke-miterlimit:4;stroke-dasharray:none;stroke-dashoffset:0;stroke-opacity:0.99512197"
       d="m 94.171138,143.63281 h 42.576232 v 42.57623 H 94.171138 Z"
       id="rect584-5-2-0"
       inkscape:connector-curvature="0" />
    <g
       id="g187"
       transform="matrix(0.32285714,0,0,0.32285714,92.654792,123.18123)">
      <path
         d="m 26.341049,135.34022 q -2.055135,0 -3.81668,-1.36493 -1.663681,-1.45596 -1.663681,-3.73088 0,-2.18391 1.663681,-3.63985 1.761545,-1.54695 3.81668,-1.54695 1.95727,0 3.62095,1.54695 1.663679,1.45594 1.663679,3.63985 0,2.27492 -1.663679,3.73088 -1.66368,1.36493 -3.62095,1.36493 z"
         style="font-style:normal;font-variant:normal;font-weight:normal;font-stretch:normal;font-size:50.79999924px;line-height:1.25;font-family:'Reem Kufi';-inkscape-font-specification:'Reem Kufi, Normal';font-variant-ligatures:normal;font-variant-caps:normal;font-variant-numeric:normal;font-feature-settings:normal;text-align:start;letter-spacing:0px;word-spacing:0px;writing-mode:lr-tb;text-anchor:start;fill:#ffffff;fill-opacity:1;stroke:none;stroke-width:1.19236112"
         id="path114"
         inkscape:connector-curvature="0" />
      <path
         d="m 41.501678,115.47154 0.427794,4.32548 -0.237664,-0.38026 q 1.093254,-2.23404 3.089627,-3.4699 2.043908,-1.28338 4.658207,-1.28338 2.471702,0 4.135347,1.14079 1.663645,1.14079 2.043908,3.23223 l -0.237664,0.19012 q 1.188318,-2.13898 3.184692,-3.32728 1.996375,-1.23586 4.18288,-1.23586 2.947028,0 4.658206,1.66365 1.711179,1.61612 1.758711,4.27795 v 14.73514 h -4.753273 v -12.92891 q -0.04754,-1.52104 -0.71299,-2.51923 -0.617925,-0.99818 -2.28157,-1.09325 -1.711179,0 -3.042094,1.04573 -1.283384,1.04571 -2.043908,2.70936 -0.71299,1.66365 -0.760524,3.56496 v 9.22134 h -4.800804 v -12.92891 q -0.04754,-1.52104 -0.760524,-2.51923 -0.665458,-0.99818 -2.329102,-1.09325 -1.663647,0 -2.994563,1.04573 -1.283382,1.04571 -1.996374,2.75688 -0.712991,1.66366 -0.712991,3.56496 v 9.17382 h -4.800806 v -19.86868 z"
         style="font-style:normal;font-variant:normal;font-weight:normal;font-stretch:normal;font-size:37.65515518px;line-height:1.25;font-family:'Reem Kufi';-inkscape-font-specification:'Reem Kufi, Normal';font-variant-ligatures:normal;font-variant-caps:normal;font-variant-numeric:normal;font-feature-settings:normal;text-align:start;letter-spacing:0px;word-spacing:0px;writing-mode:lr-tb;text-anchor:start;fill:#ffffff;fill-opacity:1;stroke:none;stroke-width:0.81024581"
         id="path116"
         inkscape:connector-curvature="0" />
      <path
         d="m 74.964684,125.21575 q 0,-2.99457 1.425982,-5.37119 1.425983,-2.42418 3.945216,-3.80263 2.519234,-1.37845 5.75146,-1.37845 3.279757,0 5.703925,1.37845 2.471702,1.37845 3.80262,3.80263 1.378447,2.37662 1.378447,5.37119 0,2.99455 -1.378447,5.41874 -1.378451,2.37662 -3.850152,3.80261 -2.424169,1.37845 -5.751459,1.37845 -3.13716,0 -5.656394,-1.28339 -2.471701,-1.28338 -3.945216,-3.66002 -1.425982,-2.42416 -1.425982,-5.65639 z m 4.848338,0.0474 q 0,1.85377 0.808056,3.37483 0.808056,1.47351 2.186505,2.37664 1.425982,0.85558 3.13716,0.85558 2.709366,0 4.420544,-1.90131 1.758709,-1.90131 1.758709,-4.70574 0,-2.80443 -1.758709,-4.70574 -1.711178,-1.94884 -4.420544,-1.94884 -1.758711,0 -3.13716,0.90313 -1.378449,0.90312 -2.186505,2.42416 -0.808056,1.52106 -0.808056,3.32729 z"
         style="font-style:normal;font-variant:normal;font-weight:normal;font-stretch:normal;font-size:37.65515518px;line-height:1.25;font-family:'Reem Kufi';-inkscape-font-specification:'Reem Kufi, Normal';font-variant-ligatures:normal;font-variant-caps:normal;font-variant-numeric:normal;font-feature-settings:normal;text-align:start;letter-spacing:0px;word-spacing:0px;writing-mode:lr-tb;text-anchor:start;fill:#ffffff;fill-opacity:1;stroke:none;stroke-width:0.81024581"
         id="path118"
         inkscape:connector-curvature="0" />
      <path
         d="m 102.77132,98.407294 h 4.80081 v 36.932926 h -4.80081 z"
         style="font-style:normal;font-variant:normal;font-weight:normal;font-stretch:normal;font-size:37.65515518px;line-height:1.25;font-family:'Reem Kufi';-inkscape-font-specification:'Reem Kufi, Normal';font-variant-ligatures:normal;font-variant-caps:normal;font-variant-numeric:normal;font-feature-settings:normal;text-align:start;letter-spacing:0px;word-spacing:0px;writing-mode:lr-tb;text-anchor:start;fill:#ffffff;fill-opacity:1;stroke:none;stroke-width:0.81024581"
         id="path120"
         inkscape:connector-curvature="0" />
      <path
         d="m 115.08223,115.47154 h 4.80082 v 19.86868 h -4.80082 z m -0.23766,-7.1299 q 0,-1.09325 0.85559,-1.85379 0.90312,-0.76052 1.94884,-0.76052 1.04573,0 1.90131,0.76052 0.85559,0.76054 0.85559,1.85379 0,1.1883 -0.85559,1.9013 -0.85558,0.71299 -1.90131,0.71299 -1.04572,0 -1.94884,-0.71299 -0.85559,-0.713 -0.85559,-1.9013 z"
         style="font-style:normal;font-variant:normal;font-weight:normal;font-stretch:normal;font-size:37.65515518px;line-height:1.25;font-family:'Reem Kufi';-inkscape-font-specification:'Reem Kufi, Normal';font-variant-ligatures:normal;font-variant-caps:normal;font-variant-numeric:normal;font-feature-settings:normal;text-align:start;letter-spacing:0px;word-spacing:0px;writing-mode:lr-tb;text-anchor:start;fill:#ffffff;fill-opacity:1;stroke:none;stroke-width:0.81024581"
         id="path122"
         inkscape:connector-curvature="0" />
    </g>
    <text
       xml:space="preserve"
       style="font-style:normal;font-variant:normal;font-weight:100;font-stretch:normal;font-size:8.98073673px;line-height:1.25;font-family:Gayathri;-inkscape-font-specification:'Gayathri, Thin';font-variant-ligatures:normal;font-variant-caps:normal;font-variant-numeric:normal;font-feature-settings:normal;text-align:start;letter-spacing:0px;word-spacing:0px;writing-mode:lr-tb;text-anchor:start;fill:#ffffff;fill-opacity:1;stroke:none;stroke-width:0.15308073"
       x="114.58505"
       y="174.05388"
       id="text607-4"
       inkscape:export-xdpi="102"
       inkscape:export-ydpi="102"><tspan
         sodipodi:role="line"
         id="tspan605-0"
         x="114.58505"
         y="174.05388"
         style="font-style:normal;font-variant:normal;font-weight:100;font-stretch:normal;font-size:8.98073673px;font-family:Gayathri;-inkscape-font-specification:'Gayathri, Thin';font-variant-ligatures:normal;font-variant-caps:normal;font-variant-numeric:normal;font-feature-settings:normal;text-align:start;writing-mode:lr-tb;text-anchor:start;fill:#ffffff;stroke-width:0.15308073">cafe</tspan></text>
  </g>
</svg>
